<svg width="180" height="180" viewBox="0 0 180 180" fill="none" xmlns="http://www.w3.org/2000/svg">
<circle cx="90" cy="90" r="90" fill="#2F2E41"/>
<path d="M111.438 122C103.845 122 97.3532 118.87 91.9619 112.611C86.5706 106.352 83.875 98.8148 83.875 90C83.875 85.1111 82.3757 80.9259 79.377 77.4444C76.3783 73.963 72.7734 72.2222 68.5625 72.2222C64.3516 72.2222 60.7467 73.963 57.748 77.4444C54.7493 80.9259 53.25 85.1111 53.25 90C53.25 94.8889 54.7493 99.0741 57.748 102.556C60.7467 106.037 64.3516 107.778 68.5625 107.778C72.8372 107.778 76.474 106 79.4727 102.444C80.8763 107.111 82.918 111.333 85.5977 115.111C80.6211 119.704 74.9427 122 68.5625 122C60.9701 122 54.4782 118.87 49.0869 112.611C43.6956 106.352 41 98.8148 41 90C41 81.1852 43.6956 73.6481 49.0869 67.3889C54.4782 61.1296 60.9701 58 68.5625 58C76.1549 58 82.6468 61.1296 88.0381 67.3889C93.4294 73.6481 96.125 81.1852 96.125 90C96.125 94.8889 97.6244 99.0741 100.623 102.556C103.622 106.037 107.227 107.778 111.438 107.778C115.648 107.778 119.253 106.037 122.252 102.556C125.251 99.0741 126.75 94.8889 126.75 90C126.75 85.1111 125.251 80.9259 122.252 77.4444C119.253 73.963 115.648 72.2222 111.438 72.2222C107.163 72.2222 103.526 74 100.527 77.5556C99.1237 72.8889 97.082 68.6667 94.4023 64.8889C99.3789 60.2963 105.057 58 111.438 58C119.03 58 125.522 61.1296 130.913 67.3889C136.304 73.6481 139 81.1852 139 90C139 98.8148 136.304 106.352 130.913 112.611C125.522 118.87 119.03 122 111.438 122Z" fill="white"/>
</svg>
