<?xml version="1.0" encoding="UTF-8"?>
<!DOCTYPE svg PUBLIC "-//W3C//DTD SVG 1.1//EN" "http://www.w3.org/Graphics/SVG/1.1/DTD/svg11.dtd">
<svg xmlns="http://www.w3.org/2000/svg" version="1.1" width="2000px" height="1500px" style="shape-rendering:geometricPrecision; text-rendering:geometricPrecision; image-rendering:optimizeQuality; fill-rule:evenodd; clip-rule:evenodd" xmlns:xlink="http://www.w3.org/1999/xlink">
<g><path style="opacity:1" fill="#2f2e41" d="M -0.5,-0.5 C 666.167,-0.5 1332.83,-0.5 1999.5,-0.5C 1999.5,499.5 1999.5,999.5 1999.5,1499.5C 1332.83,1499.5 666.167,1499.5 -0.5,1499.5C -0.5,999.5 -0.5,499.5 -0.5,-0.5 Z"/></g>
<g><path style="opacity:1" fill="#5b9bd1" d="M 438.5,689.5 C 445.384,688.842 450.884,691.176 455,696.5C 466.198,724.264 476.698,752.264 486.5,780.5C 482.116,780.826 477.783,780.492 473.5,779.5C 470.927,772.61 468.26,765.777 465.5,759C 449.837,758.5 434.17,758.333 418.5,758.5C 416.167,765.833 413.833,773.167 411.5,780.5C 407.116,780.826 402.783,780.492 398.5,779.5C 408.667,752.5 418.833,725.5 429,698.5C 431.43,694.566 434.597,691.566 438.5,689.5 Z"/></g>
<g><path style="opacity:1" fill="#5a9bd0" d="M 710.5,689.5 C 725.125,687.855 734.959,693.855 740,707.5C 740.333,725.833 740.667,744.167 741,762.5C 744.98,771.079 751.147,773.246 759.5,769C 761.43,766.742 762.93,764.242 764,761.5C 764.5,738.169 764.667,714.836 764.5,691.5C 768.5,691.5 772.5,691.5 776.5,691.5C 776.667,714.836 776.5,738.169 776,761.5C 771.721,777.743 761.221,784.243 744.5,781C 736.071,777.571 730.904,771.404 729,762.5C 728.667,744.5 728.333,726.5 728,708.5C 723.293,700.376 716.793,698.543 708.5,703C 707.213,704.41 706.046,705.91 705,707.5C 704.5,731.831 704.333,756.164 704.5,780.5C 700.167,780.5 695.833,780.5 691.5,780.5C 691.333,757.164 691.5,733.831 692,710.5C 694.141,699.864 700.308,692.864 710.5,689.5 Z"/></g>
<g><path style="opacity:1" fill="#5a9bd0" d="M 829.5,689.5 C 855.516,687.74 872.683,699.074 881,723.5C 881.667,746.5 881.667,769.5 881,792.5C 876.895,805.448 868.062,810.615 854.5,808C 847,805.833 842.167,801 840,793.5C 839.501,789.179 839.334,784.846 839.5,780.5C 812.775,780.607 796.608,767.607 791,741.5C 789.231,713.13 802.064,695.797 829.5,689.5 Z"/></g>
<g><path style="opacity:1" fill="#5b9bd1" d="M 930.5,689.5 C 937.384,688.842 942.884,691.176 947,696.5C 957.805,724.419 968.305,752.419 978.5,780.5C 974.116,780.826 969.783,780.492 965.5,779.5C 962.927,772.61 960.26,765.777 957.5,759C 941.837,758.5 926.17,758.333 910.5,758.5C 908.167,765.833 905.833,773.167 903.5,780.5C 899.116,780.826 894.783,780.492 890.5,779.5C 900.902,751.794 911.402,724.128 922,696.5C 924.464,693.519 927.297,691.186 930.5,689.5 Z"/></g>
<g><path style="opacity:1" fill="#5b9bd0" d="M 1369.5,689.5 C 1378.2,688.264 1384.36,691.597 1388,699.5C 1397.98,726.428 1408.14,753.261 1418.5,780C 1413.85,780.499 1409.18,780.666 1404.5,780.5C 1402.17,773.167 1399.83,765.833 1397.5,758.5C 1381.83,758.333 1366.16,758.5 1350.5,759C 1347.74,765.777 1345.07,772.61 1342.5,779.5C 1338.17,780.833 1333.83,780.833 1329.5,779.5C 1340.24,751.461 1351.07,723.461 1362,695.5C 1364.11,692.879 1366.61,690.879 1369.5,689.5 Z"/></g>
<g><path style="opacity:1" fill="#5a9bd0" d="M 1594.5,689.5 C 1622.52,687.405 1640.35,699.738 1648,726.5C 1649.29,766.209 1630.12,784.376 1590.5,781C 1563.52,771.224 1552.35,752.057 1557,723.5C 1562.76,704.571 1575.26,693.238 1594.5,689.5 Z"/></g>
<g><path style="opacity:1" fill="#5a9acf" d="M 1681.5,689.5 C 1696.38,688.18 1706.21,694.513 1711,708.5C 1711.33,726.5 1711.67,744.5 1712,762.5C 1716.46,771.82 1722.96,773.653 1731.5,768C 1732.79,765.913 1733.96,763.746 1735,761.5C 1735.5,738.169 1735.67,714.836 1735.5,691.5C 1739.5,691.5 1743.5,691.5 1747.5,691.5C 1747.67,714.836 1747.5,738.169 1747,761.5C 1742.72,777.743 1732.22,784.243 1715.5,781C 1707.91,777.745 1702.74,772.245 1700,764.5C 1699.67,746.167 1699.33,727.833 1699,709.5C 1695.78,702.306 1690.28,699.473 1682.5,701C 1679.67,702.5 1677.5,704.667 1676,707.5C 1675.5,731.831 1675.33,756.164 1675.5,780.5C 1671.17,780.5 1666.83,780.5 1662.5,780.5C 1662.33,756.831 1662.5,733.164 1663,709.5C 1665.58,699.425 1671.74,692.759 1681.5,689.5 Z"/></g>
<g><path style="opacity:1" fill="#5a9bd0" d="M 269.5,691.5 C 284.5,691.5 299.5,691.5 314.5,691.5C 314.5,695.167 314.5,698.833 314.5,702.5C 300.496,702.333 286.496,702.5 272.5,703C 264.477,707.79 262.31,714.623 266,723.5C 267.938,726.106 270.438,727.939 273.5,729C 283.167,729.333 292.833,729.667 302.5,730C 317.957,736.082 323.457,747.248 319,763.5C 315.851,772.984 309.351,778.484 299.5,780C 284.837,780.5 270.17,780.667 255.5,780.5C 255.5,776.833 255.5,773.167 255.5,769.5C 269.837,769.667 284.171,769.5 298.5,769C 308.399,763.304 310.565,755.471 305,745.5C 303.59,744.213 302.09,743.046 300.5,742C 290.225,740.767 279.892,740.1 269.5,740C 254.354,734.209 248.854,723.376 253,707.5C 256.438,699.893 261.938,694.56 269.5,691.5 Z"/></g>
<g><path style="opacity:1" fill="#5a99ce" d="M 394.5,691.5 C 394.5,694.833 394.5,698.167 394.5,701.5C 385.651,701.174 376.984,701.507 368.5,702.5C 368.333,722.503 368.5,742.503 369,762.5C 369.786,765.583 371.619,767.749 374.5,769C 378.152,769.499 381.818,769.665 385.5,769.5C 385.5,773.167 385.5,776.833 385.5,780.5C 369.668,782.354 359.835,775.687 356,760.5C 355.5,741.17 355.333,721.836 355.5,702.5C 346.5,702.5 337.5,702.5 328.5,702.5C 328.5,698.833 328.5,695.167 328.5,691.5C 350.5,691.5 372.5,691.5 394.5,691.5 Z"/></g>
<g><path style="opacity:1" fill="#5a99ce" d="M 545.5,732.5 C 545.5,735.833 545.5,739.167 545.5,742.5C 532.989,742.171 520.655,742.505 508.5,743.5C 508.5,755.833 508.5,768.167 508.5,780.5C 504.167,780.5 499.833,780.5 495.5,780.5C 495.333,756.831 495.5,733.164 496,709.5C 498.341,701.159 503.507,695.326 511.5,692C 524.496,691.5 537.496,691.333 550.5,691.5C 550.5,695.167 550.5,698.833 550.5,702.5C 538.066,702.04 525.733,702.54 513.5,704C 511.622,705.543 510.122,707.376 509,709.5C 508.5,717.159 508.334,724.826 508.5,732.5C 520.833,732.5 533.167,732.5 545.5,732.5 Z"/></g>
<g><path style="opacity:1" fill="#5a9acf" d="M 618.5,691.5 C 618.5,694.833 618.5,698.167 618.5,701.5C 607.321,701.172 596.321,701.505 585.5,702.5C 581.638,703.524 578.805,705.857 577,709.5C 576.5,717.159 576.334,724.826 576.5,732.5C 588.833,732.5 601.167,732.5 613.5,732.5C 613.5,735.833 613.5,739.167 613.5,742.5C 600.989,742.171 588.655,742.505 576.5,743.5C 576.5,755.833 576.5,768.167 576.5,780.5C 572.167,780.5 567.833,780.5 563.5,780.5C 563.333,757.164 563.5,733.831 564,710.5C 565.986,701.182 571.486,695.015 580.5,692C 593.162,691.5 605.829,691.333 618.5,691.5 Z"/></g>
<g><path style="opacity:1" fill="#5b9cd2" d="M 676.5,691.5 C 676.5,695.167 676.5,698.833 676.5,702.5C 670.833,702.5 665.167,702.5 659.5,702.5C 659.5,724.833 659.5,747.167 659.5,769.5C 665.167,769.5 670.833,769.5 676.5,769.5C 676.5,772.833 676.5,776.167 676.5,779.5C 661.167,779.5 645.833,779.5 630.5,779.5C 630.5,776.167 630.5,772.833 630.5,769.5C 635.833,769.5 641.167,769.5 646.5,769.5C 647.497,747.006 647.831,724.339 647.5,701.5C 641.833,701.5 636.167,701.5 630.5,701.5C 630.5,698.167 630.5,694.833 630.5,691.5C 645.833,691.5 661.167,691.5 676.5,691.5 Z"/></g>
<g><path style="opacity:1" fill="#5082b0" d="M 989.5,691.5 C 989.5,720.833 989.5,750.167 989.5,779.5C 993.167,779.5 996.833,779.5 1000.5,779.5C 1000.5,779.833 1000.5,780.167 1000.5,780.5C 996.5,780.5 992.5,780.5 988.5,780.5C 988.169,750.662 988.502,720.995 989.5,691.5 Z"/></g>
<g><path style="opacity:1" fill="#5b9dd2" d="M 989.5,691.5 C 1004.5,691.333 1019.5,691.5 1034.5,692C 1054.08,700.002 1060.58,714.169 1054,734.5C 1049.19,743.652 1041.69,748.985 1031.5,750.5C 1021.17,750.5 1010.83,750.5 1000.5,750.5C 1000.5,760.167 1000.5,769.833 1000.5,779.5C 996.833,779.5 993.167,779.5 989.5,779.5C 989.5,750.167 989.5,720.833 989.5,691.5 Z"/></g>
<g><path style="opacity:1" fill="#5b9bd1" d="M 1071.5,691.5 C 1085.84,691.333 1100.17,691.5 1114.5,692C 1132.61,696.362 1140.77,707.862 1139,726.5C 1136.08,740.423 1127.58,748.589 1113.5,751C 1103.51,751.5 1093.51,751.666 1083.5,751.5C 1083.5,761.167 1083.5,770.833 1083.5,780.5C 1079.5,780.5 1075.5,780.5 1071.5,780.5C 1071.5,750.833 1071.5,721.167 1071.5,691.5 Z"/></g>
<g><path style="opacity:1" fill="#5998cd" d="M 1152.5,691.5 C 1156.83,691.5 1161.17,691.5 1165.5,691.5C 1165.33,715.169 1165.5,738.836 1166,762.5C 1167.5,765.333 1169.67,767.5 1172.5,769C 1181.83,769.5 1191.16,769.666 1200.5,769.5C 1200.5,773.167 1200.5,776.833 1200.5,780.5C 1190.49,780.666 1180.49,780.5 1170.5,780C 1160.46,777.289 1154.62,770.789 1153,760.5C 1152.5,737.502 1152.33,714.502 1152.5,691.5 Z"/></g>
<g><path style="opacity:1" fill="#5b9cd1" d="M 1257.5,691.5 C 1257.5,695.167 1257.5,698.833 1257.5,702.5C 1251.83,702.5 1246.17,702.5 1240.5,702.5C 1240.5,724.833 1240.5,747.167 1240.5,769.5C 1245.83,769.5 1251.17,769.5 1256.5,769.5C 1256.5,772.833 1256.5,776.167 1256.5,779.5C 1241.5,779.5 1226.5,779.5 1211.5,779.5C 1211.5,776.167 1211.5,772.833 1211.5,769.5C 1216.83,769.5 1222.17,769.5 1227.5,769.5C 1228.5,747.006 1228.83,724.339 1228.5,701.5C 1222.83,701.5 1217.17,701.5 1211.5,701.5C 1211.5,698.167 1211.5,694.833 1211.5,691.5C 1226.83,691.5 1242.17,691.5 1257.5,691.5 Z"/></g>
<g><path style="opacity:1" fill="#5a9bd0" d="M 1324.5,691.5 C 1324.5,694.833 1324.5,698.167 1324.5,701.5C 1319.31,701.179 1314.31,701.513 1309.5,702.5C 1294.14,704.693 1284.64,713.36 1281,728.5C 1278.26,749.205 1286.76,762.705 1306.5,769C 1312.49,769.499 1318.49,769.666 1324.5,769.5C 1324.5,773.167 1324.5,776.833 1324.5,780.5C 1305.53,783.235 1289.7,777.568 1277,763.5C 1261.77,739.235 1264.93,717.735 1286.5,699C 1298.24,692.077 1310.91,689.577 1324.5,691.5 Z"/></g>
<g><path style="opacity:1" fill="#5b9cd2" d="M 1487.5,691.5 C 1487.5,694.833 1487.5,698.167 1487.5,701.5C 1478.32,701.173 1469.32,701.507 1460.5,702.5C 1460.33,721.836 1460.5,741.17 1461,760.5C 1463.71,768.339 1469.21,771.339 1477.5,769.5C 1477.5,772.833 1477.5,776.167 1477.5,779.5C 1473.5,779.5 1469.5,779.5 1465.5,779.5C 1458.01,777.519 1452.85,772.852 1450,765.5C 1448.56,744.545 1448.06,723.545 1448.5,702.5C 1439.5,702.5 1430.5,702.5 1421.5,702.5C 1421.5,698.833 1421.5,695.167 1421.5,691.5C 1443.5,691.5 1465.5,691.5 1487.5,691.5 Z"/></g>
<g><path style="opacity:1" fill="#5b9cd2" d="M 1543.5,691.5 C 1543.5,694.833 1543.5,698.167 1543.5,701.5C 1537.83,701.5 1532.17,701.5 1526.5,701.5C 1526.17,724.339 1526.5,747.006 1527.5,769.5C 1532.83,769.5 1538.17,769.5 1543.5,769.5C 1543.5,773.167 1543.5,776.833 1543.5,780.5C 1528.17,780.5 1512.83,780.5 1497.5,780.5C 1497.5,776.833 1497.5,773.167 1497.5,769.5C 1503.17,769.5 1508.83,769.5 1514.5,769.5C 1514.5,747.167 1514.5,724.833 1514.5,702.5C 1508.83,702.5 1503.17,702.5 1497.5,702.5C 1497.5,698.833 1497.5,695.167 1497.5,691.5C 1512.83,691.5 1528.17,691.5 1543.5,691.5 Z"/></g>
<g><path style="opacity:1" fill="#303145" d="M 440.5,700.5 C 443.238,699.965 445.072,700.965 446,703.5C 451.677,718.365 456.844,733.365 461.5,748.5C 448.833,748.5 436.167,748.5 423.5,748.5C 428.592,732.312 434.259,716.312 440.5,700.5 Z"/></g>
<g><path style="opacity:1" fill="#2f2e41" d="M 828.5,700.5 C 849.159,698.235 862.659,706.902 869,726.5C 869.83,732.196 869.663,737.863 868.5,743.5C 857.641,749.526 849.307,758.026 843.5,769C 814.196,770.026 801.03,755.859 804,726.5C 807.241,713.095 815.408,704.428 828.5,700.5 Z"/></g>
<g><path style="opacity:1" fill="#303145" d="M 932.5,700.5 C 935.238,699.965 937.072,700.965 938,703.5C 943.677,718.365 948.844,733.365 953.5,748.5C 940.833,748.5 928.167,748.5 915.5,748.5C 920.595,732.308 926.262,716.308 932.5,700.5 Z"/></g>
<g><path style="opacity:1" fill="#2f2f42" d="M 1392.5,746.5 C 1386.51,747.166 1380.34,747.5 1374,747.5C 1367.46,747.496 1361.3,746.83 1355.5,745.5C 1360.56,731.152 1365.73,716.819 1371,702.5C 1373,699.833 1375,699.833 1377,702.5C 1382.47,717.089 1387.64,731.755 1392.5,746.5 Z"/></g>
<g><path style="opacity:1" fill="#2f2e41" d="M 1594.5,700.5 C 1616.32,698.309 1630.16,707.643 1636,728.5C 1637.77,756.061 1624.93,770.228 1597.5,771C 1575.15,765.177 1565.65,750.677 1569,727.5C 1572.59,713.75 1581.09,704.75 1594.5,700.5 Z"/></g>
<g><path style="opacity:1" fill="#466a90" d="M 394.5,691.5 C 395.482,694.962 395.815,698.629 395.5,702.5C 386.5,702.5 377.5,702.5 368.5,702.5C 376.984,701.507 385.651,701.174 394.5,701.5C 394.5,698.167 394.5,694.833 394.5,691.5 Z"/></g>
<g><path style="opacity:1" fill="#45668b" d="M 618.5,691.5 C 619.482,694.962 619.815,698.629 619.5,702.5C 608.167,702.5 596.833,702.5 585.5,702.5C 596.321,701.505 607.321,701.172 618.5,701.5C 618.5,698.167 618.5,694.833 618.5,691.5 Z"/></g>
<g><path style="opacity:1" fill="#446488" d="M 1324.5,691.5 C 1325.48,694.962 1325.81,698.629 1325.5,702.5C 1320.17,702.5 1314.83,702.5 1309.5,702.5C 1314.31,701.513 1319.31,701.179 1324.5,701.5C 1324.5,698.167 1324.5,694.833 1324.5,691.5 Z"/></g>
<g><path style="opacity:1" fill="#446488" d="M 1487.5,691.5 C 1488.48,694.962 1488.81,698.629 1488.5,702.5C 1479.17,702.5 1469.83,702.5 1460.5,702.5C 1469.32,701.507 1478.32,701.173 1487.5,701.5C 1487.5,698.167 1487.5,694.833 1487.5,691.5 Z"/></g>
<g><path style="opacity:1" fill="#3e5373" d="M 676.5,691.5 C 661.167,691.5 645.833,691.5 630.5,691.5C 630.5,694.833 630.5,698.167 630.5,701.5C 636.167,701.5 641.833,701.5 647.5,701.5C 647.831,724.339 647.497,747.006 646.5,769.5C 646.5,747.167 646.5,724.833 646.5,702.5C 640.833,702.5 635.167,702.5 629.5,702.5C 629.5,698.5 629.5,694.5 629.5,690.5C 645.342,690.17 661.009,690.504 676.5,691.5 Z"/></g>
<g><path style="opacity:1" fill="#446589" d="M 1028.5,702.5 C 1019.5,702.5 1010.5,702.5 1001.5,702.5C 1001.5,715.167 1001.5,727.833 1001.5,740.5C 1000.5,727.677 1000.17,714.677 1000.5,701.5C 1010.01,701.173 1019.35,701.506 1028.5,702.5 Z"/></g>
<g><path style="opacity:1" fill="#2f2e41" d="M 1028.5,702.5 C 1040.94,705.702 1046.11,713.702 1044,726.5C 1042.11,733.543 1037.61,738.043 1030.5,740C 1020.84,740.5 1011.17,740.666 1001.5,740.5C 1001.5,727.833 1001.5,715.167 1001.5,702.5C 1010.5,702.5 1019.5,702.5 1028.5,702.5 Z"/></g>
<g><path style="opacity:1" fill="#2f2e41" d="M 1083.5,702.5 C 1094.56,702.094 1105.56,702.594 1116.5,704C 1126.9,711.247 1129.4,720.747 1124,732.5C 1120.6,736.949 1116.1,739.449 1110.5,740C 1101.51,740.5 1092.51,740.666 1083.5,740.5C 1083.5,727.833 1083.5,715.167 1083.5,702.5 Z"/></g>
<g><path style="opacity:1" fill="#415c7e" d="M 1257.5,691.5 C 1242.17,691.5 1226.83,691.5 1211.5,691.5C 1211.5,694.833 1211.5,698.167 1211.5,701.5C 1217.17,701.5 1222.83,701.5 1228.5,701.5C 1228.83,724.339 1228.5,747.006 1227.5,769.5C 1227.5,747.167 1227.5,724.833 1227.5,702.5C 1221.83,702.5 1216.17,702.5 1210.5,702.5C 1210.5,698.5 1210.5,694.5 1210.5,690.5C 1226.34,690.17 1242.01,690.504 1257.5,691.5 Z"/></g>
<g><path style="opacity:1" fill="#3f5777" d="M 1543.5,691.5 C 1544.48,694.962 1544.81,698.629 1544.5,702.5C 1538.83,702.5 1533.17,702.5 1527.5,702.5C 1527.5,724.833 1527.5,747.167 1527.5,769.5C 1526.5,747.006 1526.17,724.339 1526.5,701.5C 1532.17,701.5 1537.83,701.5 1543.5,701.5C 1543.5,698.167 1543.5,694.833 1543.5,691.5 Z"/></g>
<g><path style="opacity:1" fill="#5080ae" d="M 545.5,732.5 C 546.482,735.962 546.815,739.629 546.5,743.5C 533.833,743.5 521.167,743.5 508.5,743.5C 520.655,742.505 532.989,742.171 545.5,742.5C 545.5,739.167 545.5,735.833 545.5,732.5 Z"/></g>
<g><path style="opacity:1" fill="#5183b2" d="M 613.5,732.5 C 614.482,735.962 614.815,739.629 614.5,743.5C 601.833,743.5 589.167,743.5 576.5,743.5C 588.655,742.505 600.989,742.171 613.5,742.5C 613.5,739.167 613.5,735.833 613.5,732.5 Z"/></g>
<g><path style="opacity:1" fill="#436184" d="M 1355.5,745.5 C 1361.3,746.83 1367.46,747.496 1374,747.5C 1380.34,747.5 1386.51,747.166 1392.5,746.5C 1393.04,746.56 1393.38,746.893 1393.5,747.5C 1380.52,748.499 1367.52,748.832 1354.5,748.5C 1354.26,747.209 1354.6,746.209 1355.5,745.5 Z"/></g>
<g><path style="opacity:1" fill="#4a749c" d="M 1031.5,750.5 C 1021.68,751.494 1011.68,751.827 1001.5,751.5C 1001.83,761.348 1001.49,771.014 1000.5,780.5C 1000.5,780.167 1000.5,779.833 1000.5,779.5C 1000.5,769.833 1000.5,760.167 1000.5,750.5C 1010.83,750.5 1021.17,750.5 1031.5,750.5 Z"/></g>
<g><path style="opacity:1" fill="#2f2f42" d="M 867.5,756.5 C 868.829,761.624 869.495,767.124 869.5,773C 869.333,778.5 869.167,784 869,789.5C 867.687,795.83 863.854,798.33 857.5,797C 851.412,792.748 849.246,786.915 851,779.5C 854.06,770.033 859.56,762.366 867.5,756.5 Z"/></g>
<g><path style="opacity:1" fill="#5388b7" d="M 630.5,769.5 C 630.5,772.833 630.5,776.167 630.5,779.5C 645.833,779.5 661.167,779.5 676.5,779.5C 661.009,780.496 645.342,780.83 629.5,780.5C 629.185,776.629 629.518,772.962 630.5,769.5 Z"/></g>
<g><path style="opacity:1" fill="#548aba" d="M 1211.5,769.5 C 1211.5,772.833 1211.5,776.167 1211.5,779.5C 1226.5,779.5 1241.5,779.5 1256.5,779.5C 1256.5,776.167 1256.5,772.833 1256.5,769.5C 1257.48,772.962 1257.81,776.629 1257.5,780.5C 1241.83,780.5 1226.17,780.5 1210.5,780.5C 1210.19,776.629 1210.52,772.962 1211.5,769.5 Z"/></g>
<g><path style="opacity:1" fill="#4e7ca7" d="M 1477.5,769.5 C 1478.48,772.962 1478.81,776.629 1478.5,780.5C 1473.97,780.818 1469.63,780.485 1465.5,779.5C 1469.5,779.5 1473.5,779.5 1477.5,779.5C 1477.5,776.167 1477.5,772.833 1477.5,769.5 Z"/></g>
</svg>
