<?xml version="1.0" encoding="UTF-8"?>
<!DOCTYPE svg PUBLIC "-//W3C//DTD SVG 1.1//EN" "http://www.w3.org/Graphics/SVG/1.1/DTD/svg11.dtd">
<svg xmlns="http://www.w3.org/2000/svg" version="1.1" width="1511px" height="125px" style="shape-rendering:geometricPrecision; text-rendering:geometricPrecision; image-rendering:optimizeQuality; fill-rule:evenodd; clip-rule:evenodd" xmlns:xlink="http://www.w3.org/1999/xlink">
<g><path style="opacity:1" fill="#1c6597" d="M -0.5,-0.5 C 503.167,-0.5 1006.83,-0.5 1510.5,-0.5C 1510.5,41.1667 1510.5,82.8333 1510.5,124.5C 1217.17,124.5 923.833,124.5 630.5,124.5C 632.138,122.104 633.304,119.438 634,116.5C 634.667,93.5 634.667,70.5 634,47.5C 625.426,22.6166 607.926,11.4499 581.5,14C 554.474,20.5405 541.974,37.7071 544,65.5C 549.608,91.6068 565.775,104.607 592.5,104.5C 591.878,111.461 592.878,118.127 595.5,124.5C 396.833,124.5 198.167,124.5 -0.5,124.5C -0.5,82.8333 -0.5,41.1667 -0.5,-0.5 Z"/></g>
<g><path style="opacity:1" fill="#fbfcfd" d="M 191.5,13.5 C 198.384,12.8422 203.884,15.1756 208,20.5C 218.805,48.4192 229.305,76.4192 239.5,104.5C 235.116,104.826 230.783,104.492 226.5,103.5C 223.927,96.6104 221.26,89.7771 218.5,83C 202.837,82.5001 187.17,82.3334 171.5,82.5C 169.167,89.8333 166.833,97.1667 164.5,104.5C 160.116,104.826 155.783,104.492 151.5,103.5C 161.765,76.5388 171.932,49.5388 182,22.5C 184.406,18.5915 187.572,15.5915 191.5,13.5 Z"/></g>
<g><path style="opacity:1" fill="#f9fbfc" d="M 463.5,13.5 C 477.878,12.2639 487.711,18.2639 493,31.5C 493.333,49.5 493.667,67.5 494,85.5C 497.446,94.8082 503.612,97.3082 512.5,93C 514.894,91.0478 516.394,88.5478 517,85.5C 517.5,62.169 517.667,38.8357 517.5,15.5C 521.5,15.5 525.5,15.5 529.5,15.5C 529.667,38.8357 529.5,62.169 529,85.5C 524.721,101.743 514.221,108.243 497.5,105C 489.071,101.571 483.904,95.404 482,86.5C 481.667,68.5 481.333,50.5 481,32.5C 476.293,24.3761 469.793,22.5428 461.5,27C 460.213,28.4095 459.046,29.9095 458,31.5C 457.5,55.8311 457.333,80.1644 457.5,104.5C 453.167,104.5 448.833,104.5 444.5,104.5C 444.333,80.831 444.5,57.1643 445,33.5C 447.587,23.4168 453.753,16.7502 463.5,13.5 Z"/></g>
<g><path style="opacity:1" fill="#fafcfc" d="M 630.5,124.5 C 618.833,124.5 607.167,124.5 595.5,124.5C 592.878,118.127 591.878,111.461 592.5,104.5C 565.775,104.607 549.608,91.6068 544,65.5C 541.974,37.7071 554.474,20.5405 581.5,14C 607.926,11.4499 625.426,22.6166 634,47.5C 634.667,70.5 634.667,93.5 634,116.5C 633.304,119.438 632.138,122.104 630.5,124.5 Z"/></g>
<g><path style="opacity:1" fill="#fbfcfd" d="M 683.5,13.5 C 690.384,12.8422 695.884,15.1756 700,20.5C 710.805,48.4192 721.305,76.4192 731.5,104.5C 727.116,104.826 722.783,104.492 718.5,103.5C 715.927,96.6104 713.26,89.7771 710.5,83C 694.837,82.5001 679.17,82.3334 663.5,82.5C 661.167,89.8333 658.833,97.1667 656.5,104.5C 652.116,104.826 647.783,104.492 643.5,103.5C 653.667,76.5 663.833,49.5 674,22.5C 676.406,18.5915 679.572,15.5915 683.5,13.5 Z"/></g>
<g><path style="opacity:1" fill="#fafcfd" d="M 1122.5,13.5 C 1130.19,12.2626 1136.02,14.9293 1140,21.5C 1150.37,49.0702 1160.87,76.5702 1171.5,104C 1166.85,104.499 1162.18,104.666 1157.5,104.5C 1155.17,97.1667 1152.83,89.8333 1150.5,82.5C 1134.83,82.3334 1119.16,82.5001 1103.5,83C 1100.74,89.7771 1098.07,96.6104 1095.5,103.5C 1091.17,104.833 1086.83,104.833 1082.5,103.5C 1093.24,75.4607 1104.07,47.4607 1115,19.5C 1117.11,16.8792 1119.61,14.8792 1122.5,13.5 Z"/></g>
<g><path style="opacity:1" fill="#fafbfc" d="M 1347.5,13.5 C 1365.28,11.8101 1380.11,17.4767 1392,30.5C 1403.58,47.8195 1404.58,65.8195 1395,84.5C 1382.42,102.261 1365.25,109.095 1343.5,105C 1318.42,96.5632 1306.92,79.0632 1309,52.5C 1313.36,30.9744 1326.19,17.9744 1347.5,13.5 Z"/></g>
<g><path style="opacity:1" fill="#f8fafb" d="M 1434.5,13.5 C 1449.38,12.1802 1459.21,18.5135 1464,32.5C 1464.33,50.5 1464.67,68.5 1465,86.5C 1469.44,95.8091 1475.94,97.6424 1484.5,92C 1485.79,89.913 1486.96,87.7463 1488,85.5C 1488.5,62.169 1488.67,38.8357 1488.5,15.5C 1492.5,15.5 1496.5,15.5 1500.5,15.5C 1500.67,38.8357 1500.5,62.169 1500,85.5C 1495.72,101.743 1485.22,108.243 1468.5,105C 1460.91,101.745 1455.74,96.245 1453,88.5C 1452.67,70.1667 1452.33,51.8333 1452,33.5C 1448.78,26.3065 1443.28,23.4732 1435.5,25C 1432.67,26.5 1430.5,28.6667 1429,31.5C 1428.5,55.8311 1428.33,80.1644 1428.5,104.5C 1424.17,104.5 1419.83,104.5 1415.5,104.5C 1415.33,80.831 1415.5,57.1643 1416,33.5C 1418.58,23.4253 1424.74,16.7586 1434.5,13.5 Z"/></g>
<g><path style="opacity:1" fill="#f9fbfc" d="M 22.5,15.5 C 37.5,15.5 52.5,15.5 67.5,15.5C 67.5,19.1667 67.5,22.8333 67.5,26.5C 53.496,26.3334 39.496,26.5001 25.5,27C 17.4771,31.7899 15.3104,38.6233 19,47.5C 20.9384,50.1059 23.4384,51.9392 26.5,53C 36.1667,53.3333 45.8333,53.6667 55.5,54C 71.9515,60.7475 77.1182,72.5808 71,89.5C 67.5805,97.7979 61.4138,102.631 52.5,104C 37.8371,104.5 23.1705,104.667 8.5,104.5C 8.5,100.833 8.5,97.1667 8.5,93.5C 22.8372,93.6666 37.1705,93.4999 51.5,93C 61.3987,87.304 63.5654,79.4707 58,69.5C 56.5905,68.2125 55.0905,67.0458 53.5,66C 43.2251,64.767 32.8918,64.1003 22.5,64C 7.85923,57.8859 2.35923,47.0526 6,31.5C 9.43775,23.8934 14.9377,18.56 22.5,15.5 Z"/></g>
<g><path style="opacity:1" fill="#f6f9fb" d="M 147.5,15.5 C 147.5,18.8333 147.5,22.1667 147.5,25.5C 138.651,25.1736 129.984,25.507 121.5,26.5C 121.333,46.5028 121.5,66.5028 122,86.5C 122.786,89.5827 124.619,91.7494 127.5,93C 131.152,93.4986 134.818,93.6653 138.5,93.5C 138.5,97.1667 138.5,100.833 138.5,104.5C 122.682,106.359 112.849,99.6927 109,84.5C 108.5,65.1695 108.333,45.8362 108.5,26.5C 99.5,26.5 90.5,26.5 81.5,26.5C 81.5,22.8333 81.5,19.1667 81.5,15.5C 103.5,15.5 125.5,15.5 147.5,15.5 Z"/></g>
<g><path style="opacity:1" fill="#f6f9fb" d="M 298.5,56.5 C 298.5,59.8333 298.5,63.1667 298.5,66.5C 285.989,66.1714 273.655,66.5048 261.5,67.5C 261.5,79.8333 261.5,92.1667 261.5,104.5C 257.167,104.5 252.833,104.5 248.5,104.5C 248.333,80.831 248.5,57.1643 249,33.5C 251.43,24.7372 256.93,18.9038 265.5,16C 278.162,15.5001 290.829,15.3334 303.5,15.5C 303.5,19.1667 303.5,22.8333 303.5,26.5C 291.066,26.0402 278.733,26.5402 266.5,28C 264.622,29.5429 263.122,31.3762 262,33.5C 261.5,41.1594 261.334,48.8261 261.5,56.5C 273.833,56.5 286.167,56.5 298.5,56.5 Z"/></g>
<g><path style="opacity:1" fill="#fcfdfd" d="M 371.5,15.5 C 371.5,18.8333 371.5,22.1667 371.5,25.5C 360.321,25.1721 349.321,25.5054 338.5,26.5C 334.638,27.5237 331.805,29.8571 330,33.5C 329.5,41.1594 329.334,48.8261 329.5,56.5C 341.833,56.5 354.167,56.5 366.5,56.5C 366.5,59.8333 366.5,63.1667 366.5,66.5C 353.989,66.1714 341.655,66.5048 329.5,67.5C 329.5,79.8333 329.5,92.1667 329.5,104.5C 325.5,104.5 321.5,104.5 317.5,104.5C 317.333,79.8311 317.5,55.1644 318,30.5C 320.924,23.2417 326.091,18.4084 333.5,16C 346.162,15.5001 358.829,15.3334 371.5,15.5 Z"/></g>
<g><path style="opacity:1" fill="#fbfcfd" d="M 429.5,15.5 C 429.5,19.1667 429.5,22.8333 429.5,26.5C 423.833,26.5 418.167,26.5 412.5,26.5C 412.5,48.8333 412.5,71.1667 412.5,93.5C 418.167,93.5 423.833,93.5 429.5,93.5C 429.5,97.1667 429.5,100.833 429.5,104.5C 413.833,104.5 398.167,104.5 382.5,104.5C 382.5,100.833 382.5,97.1667 382.5,93.5C 388.167,93.5 393.833,93.5 399.5,93.5C 400.497,71.0061 400.831,48.3395 400.5,25.5C 394.833,25.5 389.167,25.5 383.5,25.5C 383.5,22.1667 383.5,18.8333 383.5,15.5C 398.833,15.5 414.167,15.5 429.5,15.5 Z"/></g>
<g><path style="opacity:1" fill="#c7d9e5" d="M 742.5,15.5 C 742.5,44.8333 742.5,74.1667 742.5,103.5C 746.167,103.5 749.833,103.5 753.5,103.5C 753.5,103.833 753.5,104.167 753.5,104.5C 749.5,104.5 745.5,104.5 741.5,104.5C 741.169,74.662 741.502,44.9953 742.5,15.5 Z"/></g>
<g><path style="opacity:1" fill="#fdfdfe" d="M 742.5,15.5 C 757.504,15.3334 772.504,15.5001 787.5,16C 806.779,23.7273 813.279,37.5607 807,57.5C 802.679,67.407 795.179,73.0736 784.5,74.5C 774.167,74.5 763.833,74.5 753.5,74.5C 753.5,84.1667 753.5,93.8333 753.5,103.5C 749.833,103.5 746.167,103.5 742.5,103.5C 742.5,74.1667 742.5,44.8333 742.5,15.5 Z"/></g>
<g><path style="opacity:1" fill="#fbfcfd" d="M 824.5,15.5 C 840.224,15.0631 855.891,15.5631 871.5,17C 880.883,20.048 887.383,26.2147 891,35.5C 895.345,56.6731 887.178,69.8397 866.5,75C 856.506,75.4998 846.506,75.6665 836.5,75.5C 836.5,85.1667 836.5,94.8333 836.5,104.5C 832.5,104.5 828.5,104.5 824.5,104.5C 824.5,74.8333 824.5,45.1667 824.5,15.5 Z"/></g>
<g><path style="opacity:1" fill="#f5f8fa" d="M 905.5,15.5 C 909.833,15.5 914.167,15.5 918.5,15.5C 918.333,39.169 918.5,62.8357 919,86.5C 920.5,89.3333 922.667,91.5 925.5,93C 934.827,93.4998 944.161,93.6665 953.5,93.5C 953.5,97.1667 953.5,100.833 953.5,104.5C 943.494,104.666 933.494,104.5 923.5,104C 913.456,101.289 907.623,94.7888 906,84.5C 905.5,61.5024 905.333,38.5024 905.5,15.5 Z"/></g>
<g><path style="opacity:1" fill="#fbfcfd" d="M 1010.5,15.5 C 1010.5,19.1667 1010.5,22.8333 1010.5,26.5C 1004.83,26.5 999.167,26.5 993.5,26.5C 993.5,48.8333 993.5,71.1667 993.5,93.5C 998.833,93.5 1004.17,93.5 1009.5,93.5C 1009.5,96.8333 1009.5,100.167 1009.5,103.5C 994.5,103.5 979.5,103.5 964.5,103.5C 964.5,100.167 964.5,96.8333 964.5,93.5C 969.833,93.5 975.167,93.5 980.5,93.5C 981.497,71.0061 981.831,48.3395 981.5,25.5C 975.833,25.5 970.167,25.5 964.5,25.5C 964.5,22.1667 964.5,18.8333 964.5,15.5C 979.833,15.5 995.167,15.5 1010.5,15.5 Z"/></g>
<g><path style="opacity:1" fill="#fafbfc" d="M 1077.5,15.5 C 1077.5,18.8333 1077.5,22.1667 1077.5,25.5C 1072.31,25.1795 1067.31,25.5128 1062.5,26.5C 1048.01,28.4842 1038.51,36.4842 1034,50.5C 1032.02,81.3568 1046.52,95.6902 1077.5,93.5C 1077.5,97.1667 1077.5,100.833 1077.5,104.5C 1055.49,107.236 1038.32,99.5697 1026,81.5C 1016.47,61.3556 1019.3,43.1889 1034.5,27C 1047.03,16.7817 1061.37,12.9484 1077.5,15.5 Z"/></g>
<g><path style="opacity:1" fill="#fcfdfd" d="M 1240.5,15.5 C 1240.5,18.8333 1240.5,22.1667 1240.5,25.5C 1231.32,25.1734 1222.32,25.5067 1213.5,26.5C 1213.33,45.8362 1213.5,65.1695 1214,84.5C 1216.58,92.543 1222.08,95.543 1230.5,93.5C 1230.5,96.8333 1230.5,100.167 1230.5,103.5C 1226.5,103.5 1222.5,103.5 1218.5,103.5C 1208.97,100.793 1203.47,94.4596 1202,84.5C 1201.5,65.1695 1201.33,45.8362 1201.5,26.5C 1192.5,26.5 1183.5,26.5 1174.5,26.5C 1174.5,22.8333 1174.5,19.1667 1174.5,15.5C 1196.5,15.5 1218.5,15.5 1240.5,15.5 Z"/></g>
<g><path style="opacity:1" fill="#fcfcfd" d="M 1296.5,15.5 C 1296.5,18.8333 1296.5,22.1667 1296.5,25.5C 1290.83,25.5 1285.17,25.5 1279.5,25.5C 1279.17,48.3395 1279.5,71.0061 1280.5,93.5C 1285.83,93.5 1291.17,93.5 1296.5,93.5C 1296.5,97.1667 1296.5,100.833 1296.5,104.5C 1281.17,104.5 1265.83,104.5 1250.5,104.5C 1250.5,100.833 1250.5,97.1667 1250.5,93.5C 1256.17,93.5 1261.83,93.5 1267.5,93.5C 1267.5,71.1667 1267.5,48.8333 1267.5,26.5C 1261.83,26.5 1256.17,26.5 1250.5,26.5C 1250.5,22.8333 1250.5,19.1667 1250.5,15.5C 1265.83,15.5 1281.17,15.5 1296.5,15.5 Z"/></g>
<g><path style="opacity:1" fill="#25699a" d="M 193.5,24.5 C 196.238,23.9648 198.072,24.9648 199,27.5C 204.677,42.3654 209.844,57.3654 214.5,72.5C 201.833,72.5 189.167,72.5 176.5,72.5C 181.595,56.3075 187.262,40.3075 193.5,24.5 Z"/></g>
<g><path style="opacity:1" fill="#1d6697" d="M 581.5,24.5 C 601.646,22.3129 615.146,30.6463 622,49.5C 622.83,55.5276 622.664,61.5276 621.5,67.5C 610.641,73.5259 602.307,82.0259 596.5,93C 567.196,94.0255 554.03,79.8588 557,50.5C 560.241,37.0947 568.408,28.4281 581.5,24.5 Z"/></g>
<g><path style="opacity:1" fill="#206798" d="M 1145.5,70.5 C 1139.51,71.1662 1133.34,71.4996 1127,71.5C 1120.46,71.4962 1114.3,70.8296 1108.5,69.5C 1113.03,55.7551 1117.86,42.0885 1123,28.5C 1124.51,24.326 1126.84,23.6593 1130,26.5C 1135.47,41.0886 1140.64,55.7553 1145.5,70.5 Z"/></g>
<g><path style="opacity:1" fill="#1d6697" d="M 1347.5,24.5 C 1378.42,23.9205 1391.92,38.9205 1388,69.5C 1381.69,88.4159 1368.52,96.9159 1348.5,95C 1327.29,87.771 1318.46,72.9376 1322,50.5C 1326.03,37.3089 1334.53,28.6422 1347.5,24.5 Z"/></g>
<g><path style="opacity:1" fill="#97b9cf" d="M 147.5,15.5 C 148.482,18.9619 148.815,22.6286 148.5,26.5C 139.5,26.5 130.5,26.5 121.5,26.5C 129.984,25.507 138.651,25.1736 147.5,25.5C 147.5,22.1667 147.5,18.8333 147.5,15.5 Z"/></g>
<g><path style="opacity:1" fill="#8fb3cb" d="M 371.5,15.5 C 372.482,18.9619 372.815,22.6286 372.5,26.5C 361.167,26.5 349.833,26.5 338.5,26.5C 349.321,25.5054 360.321,25.1721 371.5,25.5C 371.5,22.1667 371.5,18.8333 371.5,15.5 Z"/></g>
<g><path style="opacity:1" fill="#25699a" d="M 685.5,24.5 C 688.238,23.9648 690.072,24.9648 691,27.5C 696.677,42.3654 701.844,57.3654 706.5,72.5C 693.833,72.5 681.167,72.5 668.5,72.5C 673.371,56.2214 679.037,40.2214 685.5,24.5 Z"/></g>
<g><path style="opacity:1" fill="#8bb0c9" d="M 1077.5,15.5 C 1078.48,18.9619 1078.81,22.6286 1078.5,26.5C 1073.17,26.5 1067.83,26.5 1062.5,26.5C 1067.31,25.5128 1072.31,25.1795 1077.5,25.5C 1077.5,22.1667 1077.5,18.8333 1077.5,15.5 Z"/></g>
<g><path style="opacity:1" fill="#8bb0c9" d="M 1240.5,15.5 C 1241.48,18.9619 1241.81,22.6286 1241.5,26.5C 1232.17,26.5 1222.83,26.5 1213.5,26.5C 1222.32,25.5067 1231.32,25.1734 1240.5,25.5C 1240.5,22.1667 1240.5,18.8333 1240.5,15.5 Z"/></g>
<g><path style="opacity:1" fill="#6a99ba" d="M 429.5,15.5 C 414.167,15.5 398.833,15.5 383.5,15.5C 383.5,18.8333 383.5,22.1667 383.5,25.5C 389.167,25.5 394.833,25.5 400.5,25.5C 400.831,48.3395 400.497,71.0061 399.5,93.5C 399.5,71.1667 399.5,48.8333 399.5,26.5C 393.833,26.5 388.167,26.5 382.5,26.5C 382.5,22.5 382.5,18.5 382.5,14.5C 398.342,14.1704 414.009,14.5037 429.5,15.5 Z"/></g>
<g><path style="opacity:1" fill="#8db1ca" d="M 781.5,26.5 C 772.5,26.5 763.5,26.5 754.5,26.5C 754.5,39.1667 754.5,51.8333 754.5,64.5C 753.505,51.6774 753.171,38.6774 753.5,25.5C 763.015,25.1731 772.348,25.5064 781.5,26.5 Z"/></g>
<g><path style="opacity:1" fill="#1d6597" d="M 781.5,26.5 C 793.942,29.7022 799.108,37.7022 797,50.5C 795.111,57.5425 790.611,62.0425 783.5,64C 773.839,64.4998 764.172,64.6665 754.5,64.5C 754.5,51.8333 754.5,39.1667 754.5,26.5C 763.5,26.5 772.5,26.5 781.5,26.5 Z"/></g>
<g><path style="opacity:1" fill="#1c6597" d="M 836.5,26.5 C 847.578,26.0688 858.578,26.5688 869.5,28C 876.415,31.4892 879.749,37.1559 879.5,45C 879.842,54.9951 875.175,61.3285 865.5,64C 855.839,64.4998 846.172,64.6665 836.5,64.5C 836.5,51.8333 836.5,39.1667 836.5,26.5 Z"/></g>
<g><path style="opacity:1" fill="#7ba5c2" d="M 1010.5,15.5 C 995.167,15.5 979.833,15.5 964.5,15.5C 964.5,18.8333 964.5,22.1667 964.5,25.5C 970.167,25.5 975.833,25.5 981.5,25.5C 981.831,48.3395 981.497,71.0061 980.5,93.5C 980.5,71.1667 980.5,48.8333 980.5,26.5C 974.833,26.5 969.167,26.5 963.5,26.5C 963.5,22.5 963.5,18.5 963.5,14.5C 979.342,14.1704 995.009,14.5037 1010.5,15.5 Z"/></g>
<g><path style="opacity:1" fill="#6f9dbc" d="M 1296.5,15.5 C 1297.48,18.9619 1297.81,22.6286 1297.5,26.5C 1291.83,26.5 1286.17,26.5 1280.5,26.5C 1280.5,48.8333 1280.5,71.1667 1280.5,93.5C 1279.5,71.0061 1279.17,48.3395 1279.5,25.5C 1285.17,25.5 1290.83,25.5 1296.5,25.5C 1296.5,22.1667 1296.5,18.8333 1296.5,15.5 Z"/></g>
<g><path style="opacity:1" fill="#c5d8e4" d="M 298.5,56.5 C 299.482,59.9619 299.815,63.6286 299.5,67.5C 286.833,67.5 274.167,67.5 261.5,67.5C 273.655,66.5048 285.989,66.1714 298.5,66.5C 298.5,63.1667 298.5,59.8333 298.5,56.5 Z"/></g>
<g><path style="opacity:1" fill="#cbdce7" d="M 366.5,56.5 C 367.482,59.9619 367.815,63.6286 367.5,67.5C 354.833,67.5 342.167,67.5 329.5,67.5C 341.655,66.5048 353.989,66.1714 366.5,66.5C 366.5,63.1667 366.5,59.8333 366.5,56.5 Z"/></g>
<g><path style="opacity:1" fill="#84abc6" d="M 1108.5,69.5 C 1114.3,70.8296 1120.46,71.4962 1127,71.5C 1133.34,71.4996 1139.51,71.1662 1145.5,70.5C 1146.04,70.56 1146.38,70.8933 1146.5,71.5C 1133.52,72.4991 1120.52,72.8325 1107.5,72.5C 1107.26,71.209 1107.6,70.209 1108.5,69.5 Z"/></g>
<g><path style="opacity:1" fill="#99b9d0" d="M 784.5,74.5 C 774.681,75.494 764.681,75.8274 754.5,75.5C 754.827,85.3478 754.494,95.0144 753.5,104.5C 753.5,104.167 753.5,103.833 753.5,103.5C 753.5,93.8333 753.5,84.1667 753.5,74.5C 763.833,74.5 774.167,74.5 784.5,74.5 Z"/></g>
<g><path style="opacity:1" fill="#206798" d="M 620.5,80.5 C 621.829,85.6238 622.495,91.1238 622.5,97C 622.333,102.5 622.167,108 622,113.5C 620.745,119.82 616.912,122.32 610.5,121C 604.03,116.874 601.863,111.041 604,103.5C 607.06,94.033 612.56,86.3664 620.5,80.5 Z"/></g>
<g><path style="opacity:1" fill="#d7e4ec" d="M 964.5,93.5 C 964.5,96.8333 964.5,100.167 964.5,103.5C 979.5,103.5 994.5,103.5 1009.5,103.5C 1009.5,100.167 1009.5,96.8333 1009.5,93.5C 1010.48,96.9619 1010.81,100.629 1010.5,104.5C 994.833,104.5 979.167,104.5 963.5,104.5C 963.185,100.629 963.518,96.9619 964.5,93.5 Z"/></g>
<g><path style="opacity:1" fill="#bbd0df" d="M 1230.5,93.5 C 1231.48,96.9619 1231.81,100.629 1231.5,104.5C 1226.97,104.818 1222.63,104.485 1218.5,103.5C 1222.5,103.5 1226.5,103.5 1230.5,103.5C 1230.5,100.167 1230.5,96.8333 1230.5,93.5 Z"/></g>
</svg>
