<?xml version="1.0" encoding="UTF-8"?>
<!DOCTYPE svg PUBLIC "-//W3C//DTD SVG 1.1//EN" "http://www.w3.org/Graphics/SVG/1.1/DTD/svg11.dtd">
<svg xmlns="http://www.w3.org/2000/svg" version="1.1" width="1571px" height="201px" style="shape-rendering:geometricPrecision; text-rendering:geometricPrecision; image-rendering:optimizeQuality; fill-rule:evenodd; clip-rule:evenodd" xmlns:xlink="http://www.w3.org/1999/xlink">
<g><path style="opacity:1" fill="#fefefe" d="M -0.5,-0.5 C 523.167,-0.5 1046.83,-0.5 1570.5,-0.5C 1570.5,66.5 1570.5,133.5 1570.5,200.5C 1046.83,200.5 523.167,200.5 -0.5,200.5C -0.5,133.5 -0.5,66.5 -0.5,-0.5 Z"/></g>
<g><path style="opacity:1" fill="#5892eb" d="M 215.5,63.5 C 222.384,62.8422 227.884,65.1756 232,70.5C 242.805,98.4192 253.305,126.419 263.5,154.5C 259.116,154.826 254.783,154.492 250.5,153.5C 247.927,146.61 245.26,139.777 242.5,133C 226.837,132.5 211.17,132.333 195.5,132.5C 193.167,139.833 190.833,147.167 188.5,154.5C 184.116,154.826 179.783,154.492 175.5,153.5C 185.765,126.539 195.932,99.5388 206,72.5C 208.406,68.5915 211.572,65.5915 215.5,63.5 Z"/></g>
<g><path style="opacity:1" fill="#5993eb" d="M 487.5,63.5 C 501.878,62.2639 511.711,68.2639 517,81.5C 517.333,99.5 517.667,117.5 518,135.5C 521.446,144.808 527.612,147.308 536.5,143C 538.894,141.048 540.394,138.548 541,135.5C 541.5,112.169 541.667,88.8357 541.5,65.5C 545.5,65.5 549.5,65.5 553.5,65.5C 553.667,88.8357 553.5,112.169 553,135.5C 548.721,151.743 538.221,158.243 521.5,155C 513.071,151.571 507.904,145.404 506,136.5C 505.667,118.5 505.333,100.5 505,82.5C 500.293,74.3761 493.793,72.5428 485.5,77C 484.213,78.4095 483.046,79.9095 482,81.5C 481.5,105.831 481.333,130.164 481.5,154.5C 477.167,154.5 472.833,154.5 468.5,154.5C 468.333,131.164 468.5,107.831 469,84.5C 471.141,73.8638 477.308,66.8638 487.5,63.5 Z"/></g>
<g><path style="opacity:1" fill="#5892eb" d="M 606.5,63.5 C 632.516,61.7403 649.683,73.0736 658,97.5C 658.667,120.5 658.667,143.5 658,166.5C 653.923,179.443 645.09,184.609 631.5,182C 619.115,177.075 614.115,167.908 616.5,154.5C 589.775,154.607 573.608,141.607 568,115.5C 566.196,87.1584 579.029,69.8251 606.5,63.5 Z"/></g>
<g><path style="opacity:1" fill="#5892eb" d="M 707.5,63.5 C 714.384,62.8422 719.884,65.1756 724,70.5C 734.805,98.4192 745.305,126.419 755.5,154.5C 751.116,154.826 746.783,154.492 742.5,153.5C 739.927,146.61 737.26,139.777 734.5,133C 718.837,132.5 703.17,132.333 687.5,132.5C 685.167,139.833 682.833,147.167 680.5,154.5C 676.116,154.826 671.783,154.492 667.5,153.5C 677.667,126.5 687.833,99.5 698,72.5C 700.406,68.5915 703.572,65.5915 707.5,63.5 Z"/></g>
<g><path style="opacity:1" fill="#5892eb" d="M 1146.5,63.5 C 1154.19,62.2626 1160.02,64.9293 1164,71.5C 1174.37,99.0702 1184.87,126.57 1195.5,154C 1190.85,154.499 1186.18,154.666 1181.5,154.5C 1179.17,147.167 1176.83,139.833 1174.5,132.5C 1158.83,132.333 1143.16,132.5 1127.5,133C 1124.74,139.777 1122.07,146.61 1119.5,153.5C 1115.17,154.833 1110.83,154.833 1106.5,153.5C 1117.24,125.461 1128.07,97.4607 1139,69.5C 1141.11,66.8792 1143.61,64.8792 1146.5,63.5 Z"/></g>
<g><path style="opacity:1" fill="#5993eb" d="M 1371.5,63.5 C 1397.37,61.5047 1414.87,72.5047 1424,96.5C 1428.23,115.743 1423.4,132.243 1409.5,146C 1396.9,154.989 1382.9,157.989 1367.5,155C 1342.42,146.563 1330.92,129.063 1333,102.5C 1337.36,80.9744 1350.19,67.9744 1371.5,63.5 Z"/></g>
<g><path style="opacity:1" fill="#5a93eb" d="M 1458.5,63.5 C 1473.38,62.1802 1483.21,68.5135 1488,82.5C 1488.33,100.5 1488.67,118.5 1489,136.5C 1492.94,145.057 1499.11,147.224 1507.5,143C 1509.38,140.749 1510.88,138.249 1512,135.5C 1512.5,112.169 1512.67,88.8357 1512.5,65.5C 1516.5,65.5 1520.5,65.5 1524.5,65.5C 1524.67,88.8357 1524.5,112.169 1524,135.5C 1519.71,151.755 1509.21,158.255 1492.5,155C 1484.91,151.745 1479.74,146.245 1477,138.5C 1476.67,120.167 1476.33,101.833 1476,83.5C 1472.78,76.3065 1467.28,73.4732 1459.5,75C 1456.67,76.5 1454.5,78.6667 1453,81.5C 1452.5,105.831 1452.33,130.164 1452.5,154.5C 1448.17,154.5 1443.83,154.5 1439.5,154.5C 1439.33,130.831 1439.5,107.164 1440,83.5C 1442.58,73.4253 1448.74,66.7586 1458.5,63.5 Z"/></g>
<g><path style="opacity:1" fill="#5993eb" d="M 46.5,65.5 C 61.5,65.5 76.5,65.5 91.5,65.5C 91.5,69.1667 91.5,72.8333 91.5,76.5C 77.496,76.3334 63.496,76.5001 49.5,77C 41.4771,81.7899 39.3104,88.6233 43,97.5C 44.9384,100.106 47.4384,101.939 50.5,103C 60.1667,103.333 69.8333,103.667 79.5,104C 95.9384,110.723 101.105,122.557 95,139.5C 91.5805,147.798 85.4138,152.631 76.5,154C 61.8371,154.5 47.1705,154.667 32.5,154.5C 32.5,150.833 32.5,147.167 32.5,143.5C 46.8372,143.667 61.1705,143.5 75.5,143C 83.9838,138.53 86.8172,131.697 84,122.5C 82.5,119.667 80.3333,117.5 77.5,116C 67.2251,114.767 56.8918,114.1 46.5,114C 31.8533,107.874 26.3533,97.0407 30,81.5C 33.4377,73.8934 38.9377,68.56 46.5,65.5 Z"/></g>
<g><path style="opacity:1" fill="#5c94eb" d="M 171.5,65.5 C 171.5,68.8333 171.5,72.1667 171.5,75.5C 162.651,75.1736 153.984,75.507 145.5,76.5C 145.333,96.5028 145.5,116.503 146,136.5C 146.786,139.583 148.619,141.749 151.5,143C 155.152,143.499 158.818,143.665 162.5,143.5C 162.5,147.167 162.5,150.833 162.5,154.5C 146.668,156.354 136.835,149.687 133,134.5C 132.5,115.17 132.333,95.8362 132.5,76.5C 123.5,76.5 114.5,76.5 105.5,76.5C 105.5,72.8333 105.5,69.1667 105.5,65.5C 127.5,65.5 149.5,65.5 171.5,65.5 Z"/></g>
<g><path style="opacity:1" fill="#5c94eb" d="M 322.5,106.5 C 322.5,109.833 322.5,113.167 322.5,116.5C 309.989,116.171 297.655,116.505 285.5,117.5C 285.5,129.833 285.5,142.167 285.5,154.5C 281.167,154.5 276.833,154.5 272.5,154.5C 272.333,130.831 272.5,107.164 273,83.5C 275.43,74.7372 280.93,68.9038 289.5,66C 302.162,65.5001 314.829,65.3334 327.5,65.5C 327.5,69.1667 327.5,72.8333 327.5,76.5C 315.495,76.3335 303.495,76.5001 291.5,77C 289.291,78.8734 287.458,81.04 286,83.5C 285.5,91.1594 285.334,98.8261 285.5,106.5C 297.833,106.5 310.167,106.5 322.5,106.5 Z"/></g>
<g><path style="opacity:1" fill="#5792eb" d="M 395.5,65.5 C 395.5,68.8333 395.5,72.1667 395.5,75.5C 384.321,75.1721 373.321,75.5054 362.5,76.5C 358.638,77.5237 355.805,79.8571 354,83.5C 353.5,91.1594 353.334,98.8261 353.5,106.5C 365.833,106.5 378.167,106.5 390.5,106.5C 390.5,109.833 390.5,113.167 390.5,116.5C 377.989,116.171 365.655,116.505 353.5,117.5C 353.5,129.833 353.5,142.167 353.5,154.5C 349.5,154.5 345.5,154.5 341.5,154.5C 341.333,129.831 341.5,105.164 342,80.5C 344.924,73.2417 350.091,68.4084 357.5,66C 370.162,65.5001 382.829,65.3334 395.5,65.5 Z"/></g>
<g><path style="opacity:1" fill="#5892eb" d="M 453.5,65.5 C 453.5,69.1667 453.5,72.8333 453.5,76.5C 447.833,76.5 442.167,76.5 436.5,76.5C 436.5,98.8333 436.5,121.167 436.5,143.5C 442.167,143.5 447.833,143.5 453.5,143.5C 453.5,147.167 453.5,150.833 453.5,154.5C 437.833,154.5 422.167,154.5 406.5,154.5C 406.5,150.833 406.5,147.167 406.5,143.5C 412.167,143.5 417.833,143.5 423.5,143.5C 424.497,121.006 424.831,98.3395 424.5,75.5C 418.833,75.5 413.167,75.5 407.5,75.5C 407.5,72.1667 407.5,68.8333 407.5,65.5C 422.833,65.5 438.167,65.5 453.5,65.5 Z"/></g>
<g><path style="opacity:1" fill="#7daaee" d="M 766.5,65.5 C 766.5,94.8333 766.5,124.167 766.5,153.5C 770.167,153.5 773.833,153.5 777.5,153.5C 777.5,153.833 777.5,154.167 777.5,154.5C 773.5,154.5 769.5,154.5 765.5,154.5C 765.169,124.662 765.502,94.9953 766.5,65.5 Z"/></g>
<g><path style="opacity:1" fill="#5691eb" d="M 766.5,65.5 C 781.504,65.3334 796.504,65.5001 811.5,66C 830.779,73.7273 837.279,87.5607 831,107.5C 826.679,117.407 819.179,123.074 808.5,124.5C 798.167,124.5 787.833,124.5 777.5,124.5C 777.5,134.167 777.5,143.833 777.5,153.5C 773.833,153.5 770.167,153.5 766.5,153.5C 766.5,124.167 766.5,94.8333 766.5,65.5 Z"/></g>
<g><path style="opacity:1" fill="#5892eb" d="M 848.5,65.5 C 863.504,65.3334 878.504,65.5001 893.5,66C 911.37,72.2282 918.536,84.7282 915,103.5C 911.495,115.855 903.328,123.022 890.5,125C 880.506,125.5 870.506,125.666 860.5,125.5C 860.5,135.167 860.5,144.833 860.5,154.5C 856.5,154.5 852.5,154.5 848.5,154.5C 848.5,124.833 848.5,95.1667 848.5,65.5 Z"/></g>
<g><path style="opacity:1" fill="#5d95eb" d="M 929.5,65.5 C 933.833,65.5 938.167,65.5 942.5,65.5C 942.333,89.169 942.5,112.836 943,136.5C 944.5,139.333 946.667,141.5 949.5,143C 958.827,143.5 968.161,143.666 977.5,143.5C 977.5,147.167 977.5,150.833 977.5,154.5C 967.494,154.666 957.494,154.5 947.5,154C 937.456,151.289 931.623,144.789 930,134.5C 929.5,111.502 929.333,88.5024 929.5,65.5 Z"/></g>
<g><path style="opacity:1" fill="#5792eb" d="M 1034.5,65.5 C 1034.5,69.1667 1034.5,72.8333 1034.5,76.5C 1028.83,76.5 1023.17,76.5 1017.5,76.5C 1017.5,98.8333 1017.5,121.167 1017.5,143.5C 1022.83,143.5 1028.17,143.5 1033.5,143.5C 1033.5,146.833 1033.5,150.167 1033.5,153.5C 1018.5,153.5 1003.5,153.5 988.5,153.5C 988.5,150.167 988.5,146.833 988.5,143.5C 993.833,143.5 999.167,143.5 1004.5,143.5C 1005.5,121.006 1005.83,98.3395 1005.5,75.5C 999.833,75.5 994.167,75.5 988.5,75.5C 988.5,72.1667 988.5,68.8333 988.5,65.5C 1003.83,65.5 1019.17,65.5 1034.5,65.5 Z"/></g>
<g><path style="opacity:1" fill="#5893eb" d="M 1101.5,65.5 C 1101.5,68.8333 1101.5,72.1667 1101.5,75.5C 1096.31,75.1795 1091.31,75.5128 1086.5,76.5C 1072.01,78.4842 1062.51,86.4842 1058,100.5C 1056.03,131.368 1070.53,145.701 1101.5,143.5C 1101.5,147.167 1101.5,150.833 1101.5,154.5C 1079.49,157.236 1062.32,149.57 1050,131.5C 1040.47,111.342 1043.3,93.1752 1058.5,77C 1071.03,66.7817 1085.37,62.9484 1101.5,65.5 Z"/></g>
<g><path style="opacity:1" fill="#5792eb" d="M 1264.5,65.5 C 1264.5,68.8333 1264.5,72.1667 1264.5,75.5C 1255.32,75.1734 1246.32,75.5067 1237.5,76.5C 1237.33,95.8362 1237.5,115.17 1238,134.5C 1240.58,142.543 1246.08,145.543 1254.5,143.5C 1254.5,146.833 1254.5,150.167 1254.5,153.5C 1250.5,153.5 1246.5,153.5 1242.5,153.5C 1235.01,151.519 1229.85,146.852 1227,139.5C 1225.56,118.545 1225.06,97.5454 1225.5,76.5C 1216.5,76.5 1207.5,76.5 1198.5,76.5C 1198.5,72.8333 1198.5,69.1667 1198.5,65.5C 1220.5,65.5 1242.5,65.5 1264.5,65.5 Z"/></g>
<g><path style="opacity:1" fill="#5792eb" d="M 1320.5,65.5 C 1320.5,68.8333 1320.5,72.1667 1320.5,75.5C 1314.83,75.5 1309.17,75.5 1303.5,75.5C 1303.17,98.3395 1303.5,121.006 1304.5,143.5C 1309.83,143.5 1315.17,143.5 1320.5,143.5C 1320.5,147.167 1320.5,150.833 1320.5,154.5C 1305.17,154.5 1289.83,154.5 1274.5,154.5C 1274.5,150.833 1274.5,147.167 1274.5,143.5C 1280.17,143.5 1285.83,143.5 1291.5,143.5C 1291.5,121.167 1291.5,98.8333 1291.5,76.5C 1285.83,76.5 1280.17,76.5 1274.5,76.5C 1274.5,72.8333 1274.5,69.1667 1274.5,65.5C 1289.83,65.5 1305.17,65.5 1320.5,65.5 Z"/></g>
<g><path style="opacity:1" fill="#f9fbfe" d="M 217.5,74.5 C 220.238,73.9648 222.072,74.9648 223,77.5C 228.677,92.3654 233.844,107.365 238.5,122.5C 225.833,122.5 213.167,122.5 200.5,122.5C 205.371,106.221 211.037,90.2214 217.5,74.5 Z"/></g>
<g><path style="opacity:1" fill="#fdfefe" d="M 605.5,74.5 C 625.646,72.3129 639.146,80.6463 646,99.5C 646.83,105.528 646.664,111.528 645.5,117.5C 634.641,123.526 626.307,132.026 620.5,143C 591.208,144.036 578.041,129.87 581,100.5C 584.241,87.0947 592.408,78.4281 605.5,74.5 Z"/></g>
<g><path style="opacity:1" fill="#f9fbfe" d="M 709.5,74.5 C 712.238,73.9648 714.072,74.9648 715,77.5C 720.677,92.3654 725.844,107.365 730.5,122.5C 717.833,122.5 705.167,122.5 692.5,122.5C 697.371,106.221 703.037,90.2214 709.5,74.5 Z"/></g>
<g><path style="opacity:1" fill="#fcfdfe" d="M 1169.5,120.5 C 1163.51,121.166 1157.34,121.5 1151,121.5C 1144.46,121.496 1138.3,120.83 1132.5,119.5C 1137.03,105.755 1141.86,92.0885 1147,78.5C 1148.51,74.326 1150.84,73.6593 1154,76.5C 1159.47,91.0886 1164.64,105.755 1169.5,120.5 Z"/></g>
<g><path style="opacity:1" fill="#fdfefe" d="M 1371.5,74.5 C 1402.42,73.9205 1415.92,88.9205 1412,119.5C 1405.69,138.416 1392.52,146.916 1372.5,145C 1351.29,137.783 1342.46,122.95 1346,100.5C 1350.03,87.3089 1358.53,78.6422 1371.5,74.5 Z"/></g>
<g><path style="opacity:1" fill="#a0c1f2" d="M 171.5,65.5 C 172.482,68.9619 172.815,72.6286 172.5,76.5C 163.5,76.5 154.5,76.5 145.5,76.5C 153.984,75.507 162.651,75.1736 171.5,75.5C 171.5,72.1667 171.5,68.8333 171.5,65.5 Z"/></g>
<g><path style="opacity:1" fill="#a6c5f3" d="M 395.5,65.5 C 396.482,68.9619 396.815,72.6286 396.5,76.5C 385.167,76.5 373.833,76.5 362.5,76.5C 373.321,75.5054 384.321,75.1721 395.5,75.5C 395.5,72.1667 395.5,68.8333 395.5,65.5 Z"/></g>
<g><path style="opacity:1" fill="#abc7f4" d="M 1101.5,65.5 C 1102.48,68.9619 1102.81,72.6286 1102.5,76.5C 1097.17,76.5 1091.83,76.5 1086.5,76.5C 1091.31,75.5128 1096.31,75.1795 1101.5,75.5C 1101.5,72.1667 1101.5,68.8333 1101.5,65.5 Z"/></g>
<g><path style="opacity:1" fill="#aac7f3" d="M 1264.5,65.5 C 1265.48,68.9619 1265.81,72.6286 1265.5,76.5C 1256.17,76.5 1246.83,76.5 1237.5,76.5C 1246.32,75.5067 1255.32,75.1734 1264.5,75.5C 1264.5,72.1667 1264.5,68.8333 1264.5,65.5 Z"/></g>
<g><path style="opacity:1" fill="#c3d7f6" d="M 453.5,65.5 C 438.167,65.5 422.833,65.5 407.5,65.5C 407.5,68.8333 407.5,72.1667 407.5,75.5C 413.167,75.5 418.833,75.5 424.5,75.5C 424.831,98.3395 424.497,121.006 423.5,143.5C 423.5,121.167 423.5,98.8333 423.5,76.5C 417.833,76.5 412.167,76.5 406.5,76.5C 406.5,72.5 406.5,68.5 406.5,64.5C 422.342,64.1704 438.009,64.5037 453.5,65.5 Z"/></g>
<g><path style="opacity:1" fill="#a8c6f3" d="M 805.5,76.5 C 796.5,76.5 787.5,76.5 778.5,76.5C 778.5,89.1667 778.5,101.833 778.5,114.5C 777.505,101.677 777.171,88.6774 777.5,75.5C 787.015,75.1731 796.348,75.5064 805.5,76.5 Z"/></g>
<g><path style="opacity:1" fill="#fdfefe" d="M 805.5,76.5 C 817.942,79.7022 823.108,87.7022 821,100.5C 819.111,107.543 814.611,112.043 807.5,114C 797.839,114.5 788.172,114.666 778.5,114.5C 778.5,101.833 778.5,89.1667 778.5,76.5C 787.5,76.5 796.5,76.5 805.5,76.5 Z"/></g>
<g><path style="opacity:1" fill="#fdfefe" d="M 860.5,76.5 C 870.839,76.3335 881.172,76.5002 891.5,77C 903.794,83.6442 906.961,93.4775 901,106.5C 898.072,110.381 894.239,112.881 889.5,114C 879.839,114.5 870.172,114.666 860.5,114.5C 860.5,101.833 860.5,89.1667 860.5,76.5 Z"/></g>
<g><path style="opacity:1" fill="#b6cff5" d="M 1034.5,65.5 C 1019.17,65.5 1003.83,65.5 988.5,65.5C 988.5,68.8333 988.5,72.1667 988.5,75.5C 994.167,75.5 999.833,75.5 1005.5,75.5C 1005.83,98.3395 1005.5,121.006 1004.5,143.5C 1004.5,121.167 1004.5,98.8333 1004.5,76.5C 998.833,76.5 993.167,76.5 987.5,76.5C 987.5,72.5 987.5,68.5 987.5,64.5C 1003.34,64.1704 1019.01,64.5037 1034.5,65.5 Z"/></g>
<g><path style="opacity:1" fill="#bfd5f7" d="M 1320.5,65.5 C 1321.48,68.9619 1321.81,72.6286 1321.5,76.5C 1315.83,76.5 1310.17,76.5 1304.5,76.5C 1304.5,98.8333 1304.5,121.167 1304.5,143.5C 1303.5,121.006 1303.17,98.3395 1303.5,75.5C 1309.17,75.5 1314.83,75.5 1320.5,75.5C 1320.5,72.1667 1320.5,68.8333 1320.5,65.5 Z"/></g>
<g><path style="opacity:1" fill="#80acef" d="M 322.5,106.5 C 323.482,109.962 323.815,113.629 323.5,117.5C 310.833,117.5 298.167,117.5 285.5,117.5C 297.655,116.505 309.989,116.171 322.5,116.5C 322.5,113.167 322.5,109.833 322.5,106.5 Z"/></g>
<g><path style="opacity:1" fill="#7ba9ef" d="M 390.5,106.5 C 391.482,109.962 391.815,113.629 391.5,117.5C 378.833,117.5 366.167,117.5 353.5,117.5C 365.655,116.505 377.989,116.171 390.5,116.5C 390.5,113.167 390.5,109.833 390.5,106.5 Z"/></g>
<g><path style="opacity:1" fill="#afcbf5" d="M 1132.5,119.5 C 1138.3,120.83 1144.46,121.496 1151,121.5C 1157.34,121.5 1163.51,121.166 1169.5,120.5C 1170.04,120.56 1170.38,120.893 1170.5,121.5C 1157.52,122.499 1144.52,122.832 1131.5,122.5C 1131.26,121.209 1131.6,120.209 1132.5,119.5 Z"/></g>
<g><path style="opacity:1" fill="#a0c0f2" d="M 808.5,124.5 C 798.681,125.494 788.681,125.827 778.5,125.5C 778.827,135.348 778.494,145.014 777.5,154.5C 777.5,154.167 777.5,153.833 777.5,153.5C 777.5,143.833 777.5,134.167 777.5,124.5C 787.833,124.5 798.167,124.5 808.5,124.5 Z"/></g>
<g><path style="opacity:1" fill="#fbfcfe" d="M 644.5,130.5 C 645.829,135.624 646.495,141.124 646.5,147C 646.333,152.5 646.167,158 646,163.5C 644.745,169.82 640.912,172.32 634.5,171C 628.03,166.874 625.863,161.041 628,153.5C 630.624,143.719 636.124,136.052 644.5,130.5 Z"/></g>
<g><path style="opacity:1" fill="#72a3ed" d="M 988.5,143.5 C 988.5,146.833 988.5,150.167 988.5,153.5C 1003.5,153.5 1018.5,153.5 1033.5,153.5C 1033.5,150.167 1033.5,146.833 1033.5,143.5C 1034.48,146.962 1034.81,150.629 1034.5,154.5C 1018.83,154.5 1003.17,154.5 987.5,154.5C 987.185,150.629 987.518,146.962 988.5,143.5 Z"/></g>
<g><path style="opacity:1" fill="#87b0f0" d="M 1254.5,143.5 C 1255.48,146.962 1255.81,150.629 1255.5,154.5C 1250.97,154.818 1246.63,154.485 1242.5,153.5C 1246.5,153.5 1250.5,153.5 1254.5,153.5C 1254.5,150.167 1254.5,146.833 1254.5,143.5 Z"/></g>
</svg>
