<svg width="180" height="180" viewBox="0 0 180 180" fill="none" xmlns="http://www.w3.org/2000/svg">
<circle cx="90" cy="90" r="90" fill="#ACACAC"/>
<path d="M111.438 122C103.845 122 97.3532 118.87 91.9619 112.611C86.5706 106.352 83.875 98.8148 83.875 90C83.875 85.1111 82.3757 80.9259 79.377 77.4444C76.3783 73.963 72.7734 72.2222 68.5625 72.2222C64.3516 72.2222 60.7467 73.963 57.748 77.4444C54.7493 80.9259 53.25 85.1111 53.25 90C53.25 94.8889 54.7493 99.0741 57.748 102.556C60.7467 106.037 64.3516 107.778 68.5625 107.778C72.8372 107.778 76.474 106 79.4727 102.444C80.8763 107.111 82.918 111.333 85.5977 115.111C80.6211 119.704 74.9427 122 68.5625 122C60.9701 122 54.4782 118.87 49.0869 112.611C43.6956 106.352 41 98.8148 41 90C41 81.1852 43.6956 73.6481 49.0869 67.3889C54.4782 61.1296 60.9701 58 68.5625 58C76.1549 58 82.6468 61.1296 88.0381 67.3889C93.4294 73.6481 96.125 81.1852 96.125 90C96.125 94.8889 97.6244 99.0741 100.623 102.556C103.622 106.037 107.227 107.778 111.438 107.778C115.648 107.778 119.253 106.037 122.252 102.556C125.251 99.0741 126.75 94.8889 126.75 90C126.75 85.1111 125.251 80.9259 122.252 77.4444C119.253 73.963 115.648 72.2222 111.438 72.2222C107.163 72.2222 103.526 74 100.527 77.5556C99.1237 72.8889 97.082 68.6667 94.4023 64.8889C99.3789 60.2963 105.057 58 111.438 58C119.03 58 125.522 61.1296 130.913 67.3889C136.304 73.6481 139 81.1852 139 90C139 98.8148 136.304 106.352 130.913 112.611C125.522 118.87 119.03 122 111.438 122Z" fill="white"/>
<mask id="mask0_433_315" style="mask-type:alpha" maskUnits="userSpaceOnUse" x="0" y="0" width="180" height="180">
<circle cx="90" cy="90" r="90" fill="#ACACAC"/>
</mask>
<g mask="url(#mask0_433_315)">
<rect x="-22" y="135" width="220" height="31" rx="15.5" fill="#2F2E41" fill-opacity="0.63"/>
</g>
<path d="M55.8877 146.373L52.9141 155H51.1162L54.8623 145.047H56.0107L55.8877 146.373ZM58.376 155L55.3955 146.373L55.2656 145.047H56.4209L60.1807 155H58.376ZM58.2324 151.309V152.669H52.8184V151.309H58.2324ZM64.5365 155H62.4105L62.4242 153.64H64.5365C65.1518 153.64 65.6667 153.505 66.0814 153.236C66.5007 152.967 66.8152 152.582 67.0248 152.081C67.239 151.58 67.3461 150.983 67.3461 150.29V149.75C67.3461 149.212 67.2846 148.736 67.1615 148.321C67.043 147.907 66.8653 147.558 66.6283 147.275C66.3959 146.993 66.1088 146.779 65.767 146.633C65.4298 146.487 65.0401 146.414 64.598 146.414H62.3695V145.047H64.598C65.2589 145.047 65.8627 145.159 66.4096 145.382C66.9564 145.601 67.4281 145.917 67.8246 146.332C68.2257 146.747 68.5333 147.243 68.7475 147.822C68.9617 148.401 69.0688 149.048 69.0688 149.764V150.29C69.0688 151.006 68.9617 151.653 68.7475 152.231C68.5333 152.81 68.2257 153.307 67.8246 153.722C67.4236 154.132 66.9451 154.449 66.3891 154.672C65.8376 154.891 65.2201 155 64.5365 155ZM63.3607 145.047V155H61.6449V145.047H63.3607ZM74.033 155H71.907L71.9207 153.64H74.033C74.6482 153.64 75.1632 153.505 75.5779 153.236C75.9972 152.967 76.3117 152.582 76.5213 152.081C76.7355 151.58 76.8426 150.983 76.8426 150.29V149.75C76.8426 149.212 76.7811 148.736 76.658 148.321C76.5395 147.907 76.3618 147.558 76.1248 147.275C75.8924 146.993 75.6053 146.779 75.2635 146.633C74.9262 146.487 74.5366 146.414 74.0945 146.414H71.866V145.047H74.0945C74.7553 145.047 75.3592 145.159 75.9061 145.382C76.4529 145.601 76.9246 145.917 77.3211 146.332C77.7221 146.747 78.0298 147.243 78.2439 147.822C78.4581 148.401 78.5652 149.048 78.5652 149.764V150.29C78.5652 151.006 78.4581 151.653 78.2439 152.231C78.0298 152.81 77.7221 153.307 77.3211 153.722C76.9201 154.132 76.4415 154.449 75.8855 154.672C75.3341 154.891 74.7166 155 74.033 155ZM72.8572 145.047V155H71.1414V145.047H72.8572ZM86.3063 145.047V155H84.5904V145.047H86.3063ZM89.4863 145.047H91.0176L93.8955 152.724L96.7666 145.047H98.2979L94.4971 155H93.2803L89.4863 145.047ZM88.7891 145.047H90.2451L90.498 151.691V155H88.7891V145.047ZM97.5391 145.047H99.002V155H97.2861V151.691L97.5391 145.047ZM105.388 146.373L102.414 155H100.617L104.363 145.047H105.511L105.388 146.373ZM107.876 155L104.896 146.373L104.766 145.047H105.921L109.681 155H107.876ZM107.733 151.309V152.669H102.319V151.309H107.733ZM118.679 149.914V153.715C118.537 153.902 118.316 154.107 118.015 154.33C117.719 154.549 117.325 154.738 116.833 154.897C116.341 155.057 115.728 155.137 114.994 155.137C114.37 155.137 113.798 155.032 113.278 154.822C112.759 154.608 112.31 154.296 111.931 153.886C111.558 153.476 111.268 152.977 111.063 152.389C110.858 151.796 110.756 151.122 110.756 150.365V149.675C110.756 148.923 110.849 148.253 111.036 147.665C111.227 147.073 111.501 146.571 111.856 146.161C112.212 145.751 112.64 145.441 113.141 145.231C113.647 145.017 114.219 144.91 114.857 144.91C115.673 144.91 116.347 145.047 116.881 145.32C117.418 145.589 117.833 145.963 118.125 146.441C118.416 146.92 118.601 147.467 118.679 148.082H116.997C116.942 147.736 116.835 147.426 116.676 147.152C116.521 146.879 116.297 146.665 116.006 146.51C115.719 146.35 115.345 146.271 114.885 146.271C114.488 146.271 114.139 146.346 113.839 146.496C113.538 146.646 113.287 146.868 113.087 147.159C112.891 147.451 112.743 147.806 112.642 148.226C112.542 148.645 112.492 149.123 112.492 149.661V150.365C112.492 150.912 112.549 151.397 112.663 151.821C112.781 152.245 112.95 152.603 113.169 152.895C113.392 153.186 113.663 153.407 113.982 153.558C114.301 153.703 114.661 153.776 115.062 153.776C115.454 153.776 115.776 153.744 116.026 153.681C116.277 153.612 116.475 153.533 116.621 153.441C116.771 153.346 116.888 153.255 116.97 153.168V151.192H114.898V149.914H118.679ZM127.444 153.64V155H122.159V153.64H127.444ZM122.645 145.047V155H120.929V145.047H122.645ZM126.753 149.203V150.543H122.159V149.203H126.753ZM127.409 145.047V146.414H122.159V145.047H127.409Z" fill="white"/>
</svg>
